<svg width="18" height="18" viewBox="0 0 18 18" fill="none" xmlns="http://www.w3.org/2000/svg">
<path d="M17.6093 8.19294C17.9636 7.84764 18.0887 7.34088 17.9359 6.86979C17.7827 6.39871 17.3837 6.06242 16.8935 5.99106L12.5352 5.35778C12.3495 5.33074 12.1892 5.21432 12.1063 5.046L10.1578 1.09674C9.93897 0.65305 9.49492 0.377319 9.00005 0.377319C8.50553 0.377319 8.06148 0.65305 7.8427 1.09674L5.89384 5.046C5.81094 5.21432 5.65019 5.33074 5.46457 5.35778L1.10621 5.99142C0.616387 6.06242 0.217388 6.39871 0.0642043 6.86979C-0.0886191 7.34088 0.036451 7.84764 0.390756 8.19294L3.54418 11.2667C3.67862 11.3979 3.74026 11.5868 3.70854 11.7713L2.96424 16.112C2.88062 16.5997 3.07706 17.083 3.4775 17.3742C3.87758 17.6658 4.39841 17.7037 4.83705 17.4726L8.73477 15.4232C8.90093 15.336 9.09917 15.336 9.26533 15.4232L13.1634 17.4726C13.3537 17.5728 13.5599 17.6222 13.765 17.6222C14.0313 17.6222 14.2966 17.539 14.523 17.3742C14.9234 17.083 15.1198 16.5997 15.0362 16.112L14.2916 11.7717C14.2598 11.5868 14.3215 11.3983 14.4559 11.2671L17.6093 8.19294ZM13.5815 11.8935L14.3258 16.2338C14.3633 16.4523 14.2786 16.6609 14.0991 16.7914C13.9192 16.9215 13.6954 16.9374 13.499 16.835L9.60089 14.7853C9.4131 14.6869 9.20622 14.6371 9.00005 14.6371C8.79388 14.6371 8.58735 14.6869 8.39921 14.7856L4.50185 16.835C4.30469 16.9374 4.08086 16.9215 3.90137 16.7914C3.72187 16.6609 3.63753 16.4526 3.67466 16.2338L4.41895 11.8935C4.49068 11.4747 4.35191 11.0472 4.0477 10.7509L0.89392 7.6768C0.734969 7.52181 0.680904 7.30339 0.749747 7.09254C0.818229 6.88132 0.990156 6.73643 1.20966 6.70435L5.56765 6.07107C5.98827 6.01016 6.35195 5.74632 6.53974 5.36499L8.4886 1.41573C8.58663 1.21677 8.77802 1.09818 8.99969 1.09818C9.22171 1.09818 9.41274 1.21677 9.51114 1.41573L11.46 5.36499C11.6478 5.74632 12.0111 6.01016 12.4317 6.07107L16.7901 6.70435C17.0096 6.73643 17.1815 6.88132 17.25 7.09254C17.3185 7.30339 17.2648 7.52181 17.1058 7.6768L13.9524 10.7506C13.6482 11.0472 13.5094 11.4743 13.5815 11.8935Z" fill="#084552"/>
</svg>
