<svg width="30" height="30" viewBox="0 0 30 30" fill="none" xmlns="http://www.w3.org/2000/svg">
<path d="M29.3488 13.6549C29.9393 13.0794 30.1478 12.2348 29.8931 11.4497C29.6378 10.6645 28.9728 10.1041 28.1558 9.98513L20.8919 8.92967C20.5825 8.88461 20.3152 8.69058 20.177 8.41004L16.9295 1.82795C16.5649 1.08846 15.8248 0.628906 15 0.628906C14.1758 0.628906 13.4357 1.08846 13.0711 1.82795L9.82298 8.41004C9.68482 8.69058 9.4169 8.88461 9.10753 8.92967L1.84361 9.98573C1.02723 10.1041 0.362232 10.6645 0.106926 11.4497C-0.14778 12.2348 0.0606702 13.0794 0.651179 13.6549L5.90689 18.7779C6.13095 18.9965 6.23368 19.3113 6.18081 19.6189L4.94033 26.8534C4.80096 27.6662 5.12835 28.4717 5.79575 28.9571C6.46255 29.4431 7.33059 29.5062 8.06167 29.1211L14.5579 25.7054C14.8348 25.56 15.1652 25.56 15.4421 25.7054L21.9389 29.1211C22.2561 29.2881 22.5997 29.3704 22.9415 29.3704C23.3855 29.3704 23.8276 29.2316 24.2048 28.9571C24.8722 28.4717 25.1996 27.6662 25.0603 26.8534L23.8192 19.6195C23.7663 19.3113 23.869 18.9971 24.0931 18.7785L29.3488 13.6549ZM22.6358 19.8225L23.8762 27.0564C23.9387 27.4205 23.7976 27.7683 23.4984 27.9857C23.1986 28.2026 22.8256 28.229 22.4982 28.0584L16.0014 24.6421C15.6884 24.4781 15.3436 24.3952 15 24.3952C14.6564 24.3952 14.3122 24.4781 13.9986 24.6427L7.503 28.0584C7.17441 28.229 6.80136 28.2026 6.5022 27.9857C6.20304 27.7683 6.06247 27.4211 6.12435 27.0564L7.36484 19.8225C7.48438 19.1245 7.2531 18.412 6.74609 17.9183L1.48979 12.7947C1.22487 12.5364 1.13476 12.1724 1.2495 11.8209C1.36363 11.4689 1.65018 11.2274 2.01602 11.174L9.27933 10.1185C9.98037 10.017 10.5865 9.57724 10.8995 8.94168L14.1476 2.35958C14.311 2.02799 14.63 1.83035 14.9994 1.83035C15.3694 1.83035 15.6878 2.02799 15.8518 2.35958L19.0999 8.94168C19.4129 9.57724 20.0184 10.017 20.7195 10.1185L27.9834 11.174C28.3492 11.2274 28.6358 11.4689 28.7499 11.8209C28.864 12.1724 28.7745 12.5364 28.5096 12.7947L23.2539 17.9177C22.7469 18.412 22.5156 19.1239 22.6358 19.8225Z" fill="#084552"/>
</svg>
